# xmcd
#
# Track frame offsets: 
#        150
#        15878
#        28558
#        44908
#        57740
#        73563
#        84308
#        93243
#        106213
#        119193
#
# Disc length: 1809 seconds
#
# Revision: 4
# Processed by: cddbd v1.5.2PL0 Copyright (c) Steve Scherf et al.
# Submitted via: ExactAudioCopy v0.99pb5
#
DISCID=83070f0a
DTITLE=Waylon and Willie - Clean Shirt
DYEAR=1991
DGENRE=
TTITLE0=If I Can Find A Clean Shirt
TTITLE1=I Could Write A Book About You
TTITLE2=Old Age And Treachery
TTITLE3=Two Old Sidewinders
TTITLE4=Tryin' To Outrun The Wind
TTITLE5=The Good Ol' Nights
TTITLE6=Guitars That Won't Stay In Tune
TTITLE7=The Makin's Of A Song
TTITLE8=Put Me On A Train Back To Texas
TTITLE9=Rocks From Rolling Stones
EXTD=
EXTT0=
EXTT1=
EXTT2=
EXTT3=
EXTT4=
EXTT5=
EXTT6=
EXTT7=
EXTT8=
EXTT9=
PLAYORDER=
